<svg width="20" height="20" viewBox="0 0 20 20" fill="none" xmlns="http://www.w3.org/2000/svg">
<path fill-rule="evenodd" clip-rule="evenodd" d="M1.38889 5.33204C1.38889 5.71556 1.07806 6.02648 0.694444 6.02648C0.310833 6.02648 0 5.71556 0 5.33213V0.694444C0 0.310926 0.310833 0 0.694444 0H5.33231C5.71593 0 6.02676 0.310926 6.02676 0.694444C6.02676 1.07796 5.71583 1.38889 5.33231 1.38889H2.37074L6.84361 5.86074C7.11491 6.13185 7.11491 6.57157 6.8437 6.84278C6.70815 6.97843 6.53037 7.0462 6.35259 7.0462C6.17491 7.0462 5.99722 6.97843 5.86157 6.84287L1.38889 2.37111V5.33204ZM18.5509 14.6074C18.5509 14.2239 18.8618 13.913 19.2454 13.913C19.6289 13.913 19.9398 14.2239 19.9399 14.6074V19.2448C19.9399 19.6283 19.6291 19.9393 19.2455 19.9393H14.6079C14.2243 19.9393 13.9134 19.6283 13.9134 19.2448C13.9134 18.8613 14.2243 18.5504 14.6079 18.5504H17.5687L12.9584 13.9401C12.6872 13.669 12.6872 13.2293 12.9584 12.9581C13.2296 12.6869 13.6693 12.6869 13.9406 12.9581L18.5509 17.5684V14.6074ZM5.99926 12.9581L1.38935 17.5683V14.6074C1.38935 14.2239 1.07852 13.913 0.694907 13.913C0.311296 13.913 0.000462963 14.2239 0.000462963 14.6074V19.245C0.000462963 19.6285 0.311296 19.9394 0.694907 19.9394H5.33231C5.71583 19.9394 6.02676 19.6285 6.02676 19.245C6.02676 18.8615 5.71593 18.5506 5.33231 18.5506H2.37139L6.98139 13.9401C7.25259 13.6689 7.25259 13.2292 6.9813 12.958C6.71028 12.6869 6.27056 12.6869 5.99926 12.9581ZM14.6078 0H19.2454C19.6289 0 19.9398 0.310833 19.9399 0.694444V5.33204C19.9399 5.71556 19.6291 6.02648 19.2455 6.02648C18.8619 6.02648 18.551 5.71556 18.551 5.33204V2.37093L14.079 6.84324C13.9433 6.9788 13.7656 7.04667 13.5879 7.04667C13.4102 7.04667 13.2324 6.97889 13.0969 6.84333C12.8256 6.57213 12.8256 6.13241 13.0968 5.8612L17.5688 1.38889H14.6078C14.2242 1.38889 13.9133 1.07796 13.9133 0.694444C13.9133 0.310926 14.2242 0 14.6078 0Z" fill="#BDBDBD"/>
</svg>
