<svg width="20" height="20" viewBox="0 0 20 20" fill="none" xmlns="http://www.w3.org/2000/svg">
  <path fill-rule="evenodd" clip-rule="evenodd"
    d="M10 0C4.482 0 0 4.482 0 10C0 15.518 4.482 20 10 20C15.518 20 20 15.518 20 10C20 4.482 15.518 0 10 0ZM10 0.869565C15.0476 0.869565 19.1304 4.95245 19.1304 10C19.1304 15.0476 15.0476 19.1304 10 19.1304C4.95245 19.1304 0.869565 15.0476 0.869565 10C0.869565 4.95245 4.95245 0.869565 10 0.869565ZM9.56522 4.34783V12.1739H6.95652L10 15.2174L13.0435 12.1739H10.4348V4.34783H9.56522Z"
    fill="#FA7328" />
</svg>