<svg width="20" height="20" viewBox="0 0 20 20" fill="none" xmlns="http://www.w3.org/2000/svg">
<path fill-rule="evenodd" clip-rule="evenodd" d="M10.5832 15.8334H8.9165V14.1667H10.5832V15.8334Z" fill="#FE5151"/>
<path fill-rule="evenodd" clip-rule="evenodd" d="M12.5363 9.76351C12.0933 10.2703 11.318 10.5743 10.9858 11.0811C10.6535 11.4865 10.6535 11.9932 10.6535 12.5H8.88152C8.88152 11.6892 8.88152 10.9797 9.21377 10.473C9.54602 9.96622 10.3213 9.66216 10.7643 9.35811C12.0933 8.24324 11.761 6.62162 9.87827 6.52027C8.99227 6.52027 8.21701 7.22973 8.21701 8.04054H6.6665C6.6665 6.31757 8.10626 5 9.98902 5C12.9793 5 14.3083 7.73649 12.5363 9.76351Z" fill="#FE5151"/>
</svg>
