<svg width="24" height="24" viewBox="0 0 24 24" fill="none" xmlns="http://www.w3.org/2000/svg">
<path fill-rule="evenodd" clip-rule="evenodd" d="M12.0195 1V4C16.4195 4 20.0195 7.6 20.0195 12C20.0195 13.6 19.5195 15 18.8195 16.3L17.3195 14.8C17.7195 14 18.0195 13 18.0195 12C18.0195 8.7 15.3195 6 12.0195 6V9L8.01953 5L12.0195 1ZM6.01953 12C6.01953 15.3 8.71953 18 12.0195 18V15L16.0195 19L12.0195 23V20C7.61953 20 4.01953 16.4 4.01953 12C4.01953 10.4 4.51953 9 5.21953 7.7L6.71953 9.2C6.31953 10 6.01953 11 6.01953 12Z" fill="#BDBDBD"/>
</svg>
