<svg width="118" height="118" viewBox="0 0 118 118" fill="none" xmlns="http://www.w3.org/2000/svg">
<circle cx="59" cy="59" r="59" fill="#99E9C3"/>
<mask id="mask0" mask-type="alpha" maskUnits="userSpaceOnUse" x="0" y="0" width="118" height="118">
<circle cx="59" cy="59" r="59" fill="#C4C4C4"/>
</mask>
<g mask="url(#mask0)">
<rect x="8" y="67.34" width="9.07842" height="51.7493" rx="4.53921" transform="rotate(-36.0297 8 67.34)" fill="#2E343A"/>
<path d="M59.7014 76C62.8765 75.9988 74.0773 76.2422 84.8576 79.4431C99.9856 83.934 107.987 92.3004 108 103.635L59.7014 154.5L10 103.635C10.0092 92.5594 17.6853 84.2961 32.1999 79.7378C43.2189 76.2762 54.9066 76.0025 58.2266 76.0006C58.596 76.0006 58.8537 76.0031 58.9901 76.0062C59.0867 76.0031 59.3415 76.0006 59.7014 76Z" fill="#CA5AFF"/>
</g>
<path d="M89 86C103.753 73.8816 96.6667 54.6667 95 45.5L93.5 51.5C93.8614 60.1667 98 76.25 84.5 83C64.5 93 63.8053 105.5 65 111H80C79.3333 107 75 97.5 89 86Z" fill="#2E343A"/>
<path d="M74.2533 85.3986C90 80.5 90.1972 67.9093 92.2897 61.4055L88.5577 64.3884C90.5 67.0001 84.3577 78.738 69 82C53 85.3986 48.6274 94.5287 47.5 98.5L59.6354 98.3298C60.5884 95.5133 62.201 89.1478 74.2533 85.3986Z" fill="#2E343A"/>
<path d="M77.9974 18.8735C70.0772 15.2725 61.848 14.9986 59.5153 15C59.2509 15.0007 59.0637 15.0035 58.9927 15.007C58.8925 15.0035 58.7032 15.0007 58.4318 15.0007C55.9926 15.0028 47.4057 15.3107 39.3102 19.205C28.632 24.34 22.9917 33.6542 23 46.1392C23.0098 59.6313 27.5784 68.9657 36.5773 73.8907C44.1043 78.0095 52.8679 78.0033 58.1019 77.9998L59.9329 77.9984C67.153 77.9935 80.5904 77.9838 88.6992 67.7945C92.8865 62.5352 95.0063 55.2331 95 46.0891C94.9902 33.3379 89.1119 23.9257 77.9974 18.8735Z" fill="#CA5AFF"/>
<path fill-rule="evenodd" clip-rule="evenodd" d="M35.9606 41.1688C35.9606 41.1688 36.1401 41.1243 36.4774 41.0447C36.5801 41.0233 36.6974 40.9967 36.8285 40.9669L36.8285 40.9669C37.1281 40.899 37.5005 40.8145 37.9387 40.7377C39.1983 40.486 40.997 40.1805 43.1552 39.9108C45.3141 39.6404 47.8326 39.4023 50.5306 39.2438C51.8806 39.1685 53.2737 39.0968 54.6905 39.0631C56.0147 39.0189 57.3583 39.0103 58.7032 39.0018L58.9854 39L59.067 39.0005C60.4789 39.0097 61.891 39.0188 63.281 39.0638C64.6978 39.1018 66.0916 39.1628 67.4409 39.2446C70.1396 39.4009 72.6581 39.6347 74.8163 39.9008C76.9766 40.1647 78.7753 40.4659 80.0349 40.7112C80.4614 40.7856 80.8268 40.8667 81.123 40.9324C81.2635 40.9635 81.3884 40.9912 81.4969 41.0131C81.8349 41.0934 82.0143 41.1358 82.0143 41.1358C86.1479 42.1133 88.7429 46.4207 87.8102 50.7539C87.6118 51.6762 87.2691 52.5254 86.8129 53.2814C88.2309 53.3662 89 53.4373 89 53.4373C87.7405 54.507 85.9865 55.372 83.9526 56.0712C83.3484 56.4119 82.7001 56.669 82.0248 56.8312C82.0248 56.8312 81.8453 56.8743 81.5073 56.9546C81.4032 56.9759 81.2839 57.0025 81.1502 57.0324L81.1499 57.0325C80.8512 57.0992 80.4806 57.182 80.046 57.2573C78.7983 57.5025 77.0204 57.8027 74.8863 58.0691C68.0246 59.0078 61.2002 59.0131 59.4341 58.9966C59.3581 58.9972 59.2822 58.9978 59.2062 58.9984H59.2061L58.9986 59L58.5201 58.9975L58.4118 58.997C56.6531 59.0119 51.1897 58.9964 45.2964 58.3512C44.5552 58.2753 43.8438 58.1947 43.1677 58.1107C41.0088 57.8446 39.2095 57.5434 37.9499 57.2931C37.528 57.2196 37.1665 57.1383 36.8724 57.0722L36.8723 57.0722C36.7275 57.0396 36.5991 57.0108 36.4879 56.9883C36.1505 56.9087 35.9711 56.865 35.9711 56.865C35.252 56.6929 34.5797 56.4201 33.9646 56.064C31.9654 55.3705 30.2418 54.5144 29 53.458C29 53.458 29.7659 53.3859 31.1786 53.2989C30.1333 51.5542 29.7225 49.3915 30.194 47.2246C30.8708 44.1171 33.1855 41.8422 35.9606 41.1688Z" fill="#FFCC99"/>
<path d="M67 50.9839C67 50.9839 67.21 50.9223 67.5811 50.831C67.953 50.7479 68.4818 50.6084 69.1195 50.4755C70.3948 50.2031 72.1022 49.8959 73.8165 49.6465C75.5309 49.3993 77.2517 49.2078 78.5483 49.1113C79.1951 49.0572 79.7388 49.043 80.117 49.0186C80.4966 49 80.7137 49 80.7137 49L81 51.4345C81 51.4345 80.7879 51.4901 80.4153 51.5695C80.0428 51.643 79.5125 51.7662 78.872 51.8776C77.5917 52.1128 75.8788 52.3659 74.158 52.5619C72.4373 52.7549 70.7101 52.8907 69.4093 52.9501C68.7596 52.9835 68.2146 52.9835 67.8349 52.9968C67.4539 53.0035 67.2354 52.9976 67.2354 52.9976L67 50.9839Z" fill="#2E343A"/>
<path d="M50.7667 52.9971C50.7667 52.9971 50.5482 53.0031 50.1679 52.9979C49.7882 52.9852 49.2431 52.9867 48.5934 52.9524C47.2925 52.8957 45.5646 52.7614 43.8438 52.5696C42.1222 52.3757 40.4084 52.1235 39.1281 51.89C38.4868 51.7774 37.9566 51.6543 37.584 51.5819C37.2114 51.5021 37 51.4469 37 51.4469L37.2814 49C37.2814 49 37.4991 48.9993 37.8788 49.0172C38.2578 49.041 38.8007 49.0545 39.4483 49.1082C40.7443 49.2037 42.4665 49.3939 44.181 49.6393C45.8955 49.887 47.6029 50.1929 48.879 50.4652C49.5174 50.598 50.0463 50.7375 50.4181 50.8203C50.7893 50.9113 51 50.9732 51 50.9732L50.7667 52.9971Z" fill="#2E343A"/>
</svg>
